# Unity-style plane: 10x10 in XZ, 10x10 quads, facing +Y
v -5 0 -5
v -5 0 -4
v -5 0 -3
v -5 0 -2
v -5 0 -1
v -5 0 0
v -5 0 1
v -5 0 2
v -5 0 3
v -5 0 4
v -5 0 5
v -4 0 -5
v -4 0 -4
v -4 0 -3
v -4 0 -2
v -4 0 -1
v -4 0 0
v -4 0 1
v -4 0 2
v -4 0 3
v -4 0 4
v -4 0 5
v -3 0 -5
v -3 0 -4
v -3 0 -3
v -3 0 -2
v -3 0 -1
v -3 0 0
v -3 0 1
v -3 0 2
v -3 0 3
v -3 0 4
v -3 0 5
v -2 0 -5
v -2 0 -4
v -2 0 -3
v -2 0 -2
v -2 0 -1
v -2 0 0
v -2 0 1
v -2 0 2
v -2 0 3
v -2 0 4
v -2 0 5
v -1 0 -5
v -1 0 -4
v -1 0 -3
v -1 0 -2
v -1 0 -1
v -1 0 0
v -1 0 1
v -1 0 2
v -1 0 3
v -1 0 4
v -1 0 5
v 0 0 -5
v 0 0 -4
v 0 0 -3
v 0 0 -2
v 0 0 -1
v 0 0 0
v 0 0 1
v 0 0 2
v 0 0 3
v 0 0 4
v 0 0 5
v 1 0 -5
v 1 0 -4
v 1 0 -3
v 1 0 -2
v 1 0 -1
v 1 0 0
v 1 0 1
v 1 0 2
v 1 0 3
v 1 0 4
v 1 0 5
v 2 0 -5
v 2 0 -4
v 2 0 -3
v 2 0 -2
v 2 0 -1
v 2 0 0
v 2 0 1
v 2 0 2
v 2 0 3
v 2 0 4
v 2 0 5
v 3 0 -5
v 3 0 -4
v 3 0 -3
v 3 0 -2
v 3 0 -1
v 3 0 0
v 3 0 1
v 3 0 2
v 3 0 3
v 3 0 4
v 3 0 5
v 4 0 -5
v 4 0 -4
v 4 0 -3
v 4 0 -2
v 4 0 -1
v 4 0 0
v 4 0 1
v 4 0 2
v 4 0 3
v 4 0 4
v 4 0 5
v 5 0 -5
v 5 0 -4
v 5 0 -3
v 5 0 -2
v 5 0 -1
v 5 0 0
v 5 0 1
v 5 0 2
v 5 0 3
v 5 0 4
v 5 0 5
vt 0 1
vt 0 0.9
vt 0 0.8
vt 0 0.7
vt 0 0.6
vt 0 0.5
vt 0 0.4
vt 0 0.3
vt 0 0.2
vt 0 0.1
vt 0 0
vt 0.1 1
vt 0.1 0.9
vt 0.1 0.8
vt 0.1 0.7
vt 0.1 0.6
vt 0.1 0.5
vt 0.1 0.4
vt 0.1 0.3
vt 0.1 0.2
vt 0.1 0.1
vt 0.1 0
vt 0.2 1
vt 0.2 0.9
vt 0.2 0.8
vt 0.2 0.7
vt 0.2 0.6
vt 0.2 0.5
vt 0.2 0.4
vt 0.2 0.3
vt 0.2 0.2
vt 0.2 0.1
vt 0.2 0
vt 0.3 1
vt 0.3 0.9
vt 0.3 0.8
vt 0.3 0.7
vt 0.3 0.6
vt 0.3 0.5
vt 0.3 0.4
vt 0.3 0.3
vt 0.3 0.2
vt 0.3 0.1
vt 0.3 0
vt 0.4 1
vt 0.4 0.9
vt 0.4 0.8
vt 0.4 0.7
vt 0.4 0.6
vt 0.4 0.5
vt 0.4 0.4
vt 0.4 0.3
vt 0.4 0.2
vt 0.4 0.1
vt 0.4 0
vt 0.5 1
vt 0.5 0.9
vt 0.5 0.8
vt 0.5 0.7
vt 0.5 0.6
vt 0.5 0.5
vt 0.5 0.4
vt 0.5 0.3
vt 0.5 0.2
vt 0.5 0.1
vt 0.5 0
vt 0.6 1
vt 0.6 0.9
vt 0.6 0.8
vt 0.6 0.7
vt 0.6 0.6
vt 0.6 0.5
vt 0.6 0.4
vt 0.6 0.3
vt 0.6 0.2
vt 0.6 0.1
vt 0.6 0
vt 0.7 1
vt 0.7 0.9
vt 0.7 0.8
vt 0.7 0.7
vt 0.7 0.6
vt 0.7 0.5
vt 0.7 0.4
vt 0.7 0.3
vt 0.7 0.2
vt 0.7 0.1
vt 0.7 0
vt 0.8 1
vt 0.8 0.9
vt 0.8 0.8
vt 0.8 0.7
vt 0.8 0.6
vt 0.8 0.5
vt 0.8 0.4
vt 0.8 0.3
vt 0.8 0.2
vt 0.8 0.1
vt 0.8 0
vt 0.9 1
vt 0.9 0.9
vt 0.9 0.8
vt 0.9 0.7
vt 0.9 0.6
vt 0.9 0.5
vt 0.9 0.4
vt 0.9 0.3
vt 0.9 0.2
vt 0.9 0.1
vt 0.9 0
vt 1 1
vt 1 0.9
vt 1 0.8
vt 1 0.7
vt 1 0.6
vt 1 0.5
vt 1 0.4
vt 1 0.3
vt 1 0.2
vt 1 0.1
vt 1 0
vn 0 1 0
vn 0 1 0
vn 0 1 0
vn 0 1 0
vn 0 1 0
vn 0 1 0
vn 0 1 0
vn 0 1 0
vn 0 1 0
vn 0 1 0
vn 0 1 0
vn 0 1 0
vn 0 1 0
vn 0 1 0
vn 0 1 0
vn 0 1 0
vn 0 1 0
vn 0 1 0
vn 0 1 0
vn 0 1 0
vn 0 1 0
vn 0 1 0
vn 0 1 0
vn 0 1 0
vn 0 1 0
vn 0 1 0
vn 0 1 0
vn 0 1 0
vn 0 1 0
vn 0 1 0
vn 0 1 0
vn 0 1 0
vn 0 1 0
vn 0 1 0
vn 0 1 0
vn 0 1 0
vn 0 1 0
vn 0 1 0
vn 0 1 0
vn 0 1 0
vn 0 1 0
vn 0 1 0
vn 0 1 0
vn 0 1 0
vn 0 1 0
vn 0 1 0
vn 0 1 0
vn 0 1 0
vn 0 1 0
vn 0 1 0
vn 0 1 0
vn 0 1 0
vn 0 1 0
vn 0 1 0
vn 0 1 0
vn 0 1 0
vn 0 1 0
vn 0 1 0
vn 0 1 0
vn 0 1 0
vn 0 1 0
vn 0 1 0
vn 0 1 0
vn 0 1 0
vn 0 1 0
vn 0 1 0
vn 0 1 0
vn 0 1 0
vn 0 1 0
vn 0 1 0
vn 0 1 0
vn 0 1 0
vn 0 1 0
vn 0 1 0
vn 0 1 0
vn 0 1 0
vn 0 1 0
vn 0 1 0
vn 0 1 0
vn 0 1 0
vn 0 1 0
vn 0 1 0
vn 0 1 0
vn 0 1 0
vn 0 1 0
vn 0 1 0
vn 0 1 0
vn 0 1 0
vn 0 1 0
vn 0 1 0
vn 0 1 0
vn 0 1 0
vn 0 1 0
vn 0 1 0
vn 0 1 0
vn 0 1 0
vn 0 1 0
vn 0 1 0
vn 0 1 0
vn 0 1 0
vn 0 1 0
vn 0 1 0
vn 0 1 0
vn 0 1 0
vn 0 1 0
vn 0 1 0
vn 0 1 0
vn 0 1 0
vn 0 1 0
vn 0 1 0
vn 0 1 0
vn 0 1 0
vn 0 1 0
vn 0 1 0
vn 0 1 0
vn 0 1 0
vn 0 1 0
vn 0 1 0
vn 0 1 0
vn 0 1 0
vn 0 1 0
f 1/1/1 2/2/2 13/13/13 12/12/12
f 2/2/2 3/3/3 14/14/14 13/13/13
f 3/3/3 4/4/4 15/15/15 14/14/14
f 4/4/4 5/5/5 16/16/16 15/15/15
f 5/5/5 6/6/6 17/17/17 16/16/16
f 6/6/6 7/7/7 18/18/18 17/17/17
f 7/7/7 8/8/8 19/19/19 18/18/18
f 8/8/8 9/9/9 20/20/20 19/19/19
f 9/9/9 10/10/10 21/21/21 20/20/20
f 10/10/10 11/11/11 22/22/22 21/21/21
f 12/12/12 13/13/13 24/24/24 23/23/23
f 13/13/13 14/14/14 25/25/25 24/24/24
f 14/14/14 15/15/15 26/26/26 25/25/25
f 15/15/15 16/16/16 27/27/27 26/26/26
f 16/16/16 17/17/17 28/28/28 27/27/27
f 17/17/17 18/18/18 29/29/29 28/28/28
f 18/18/18 19/19/19 30/30/30 29/29/29
f 19/19/19 20/20/20 31/31/31 30/30/30
f 20/20/20 21/21/21 32/32/32 31/31/31
f 21/21/21 22/22/22 33/33/33 32/32/32
f 23/23/23 24/24/24 35/35/35 34/34/34
f 24/24/24 25/25/25 36/36/36 35/35/35
f 25/25/25 26/26/26 37/37/37 36/36/36
f 26/26/26 27/27/27 38/38/38 37/37/37
f 27/27/27 28/28/28 39/39/39 38/38/38
f 28/28/28 29/29/29 40/40/40 39/39/39
f 29/29/29 30/30/30 41/41/41 40/40/40
f 30/30/30 31/31/31 42/42/42 41/41/41
f 31/31/31 32/32/32 43/43/43 42/42/42
f 32/32/32 33/33/33 44/44/44 43/43/43
f 34/34/34 35/35/35 46/46/46 45/45/45
f 35/35/35 36/36/36 47/47/47 46/46/46
f 36/36/36 37/37/37 48/48/48 47/47/47
f 37/37/37 38/38/38 49/49/49 48/48/48
f 38/38/38 39/39/39 50/50/50 49/49/49
f 39/39/39 40/40/40 51/51/51 50/50/50
f 40/40/40 41/41/41 52/52/52 51/51/51
f 41/41/41 42/42/42 53/53/53 52/52/52
f 42/42/42 43/43/43 54/54/54 53/53/53
f 43/43/43 44/44/44 55/55/55 54/54/54
f 45/45/45 46/46/46 57/57/57 56/56/56
f 46/46/46 47/47/47 58/58/58 57/57/57
f 47/47/47 48/48/48 59/59/59 58/58/58
f 48/48/48 49/49/49 60/60/60 59/59/59
f 49/49/49 50/50/50 61/61/61 60/60/60
f 50/50/50 51/51/51 62/62/62 61/61/61
f 51/51/51 52/52/52 63/63/63 62/62/62
f 52/52/52 53/53/53 64/64/64 63/63/63
f 53/53/53 54/54/54 65/65/65 64/64/64
f 54/54/54 55/55/55 66/66/66 65/65/65
f 56/56/56 57/57/57 68/68/68 67/67/67
f 57/57/57 58/58/58 69/69/69 68/68/68
f 58/58/58 59/59/59 70/70/70 69/69/69
f 59/59/59 60/60/60 71/71/71 70/70/70
f 60/60/60 61/61/61 72/72/72 71/71/71
f 61/61/61 62/62/62 73/73/73 72/72/72
f 62/62/62 63/63/63 74/74/74 73/73/73
f 63/63/63 64/64/64 75/75/75 74/74/74
f 64/64/64 65/65/65 76/76/76 75/75/75
f 65/65/65 66/66/66 77/77/77 76/76/76
f 67/67/67 68/68/68 79/79/79 78/78/78
f 68/68/68 69/69/69 80/80/80 79/79/79
f 69/69/69 70/70/70 81/81/81 80/80/80
f 70/70/70 71/71/71 82/82/82 81/81/81
f 71/71/71 72/72/72 83/83/83 82/82/82
f 72/72/72 73/73/73 84/84/84 83/83/83
f 73/73/73 74/74/74 85/85/85 84/84/84
f 74/74/74 75/75/75 86/86/86 85/85/85
f 75/75/75 76/76/76 87/87/87 86/86/86
f 76/76/76 77/77/77 88/88/88 87/87/87
f 78/78/78 79/79/79 90/90/90 89/89/89
f 79/79/79 80/80/80 91/91/91 90/90/90
f 80/80/80 81/81/81 92/92/92 91/91/91
f 81/81/81 82/82/82 93/93/93 92/92/92
f 82/82/82 83/83/83 94/94/94 93/93/93
f 83/83/83 84/84/84 95/95/95 94/94/94
f 84/84/84 85/85/85 96/96/96 95/95/95
f 85/85/85 86/86/86 97/97/97 96/96/96
f 86/86/86 87/87/87 98/98/98 97/97/97
f 87/87/87 88/88/88 99/99/99 98/98/98
f 89/89/89 90/90/90 101/101/101 100/100/100
f 90/90/90 91/91/91 102/102/102 101/101/101
f 91/91/91 92/92/92 103/103/103 102/102/102
f 92/92/92 93/93/93 104/104/104 103/103/103
f 93/93/93 94/94/94 105/105/105 104/104/104
f 94/94/94 95/95/95 106/106/106 105/105/105
f 95/95/95 96/96/96 107/107/107 106/106/106
f 96/96/96 97/97/97 108/108/108 107/107/107
f 97/97/97 98/98/98 109/109/109 108/108/108
f 98/98/98 99/99/99 110/110/110 109/109/109
f 100/100/100 101/101/101 112/112/112 111/111/111
f 101/101/101 102/102/102 113/113/113 112/112/112
f 102/102/102 103/103/103 114/114/114 113/113/113
f 103/103/103 104/104/104 115/115/115 114/114/114
f 104/104/104 105/105/105 116/116/116 115/115/115
f 105/105/105 106/106/106 117/117/117 116/116/116
f 106/106/106 107/107/107 118/118/118 117/117/117
f 107/107/107 108/108/108 119/119/119 118/118/118
f 108/108/108 109/109/109 120/120/120 119/119/119
f 109/109/109 110/110/110 121/121/121 120/120/120
